<?xml version="1.0" encoding="utf-8"?>
<!-- Generator: Adobe Illustrator 18.0.0, SVG Export Plug-In . SVG Version: 6.00 Build 0)  -->
<!DOCTYPE svg PUBLIC "-//W3C//DTD SVG 1.1//EN" "http://www.w3.org/Graphics/SVG/1.1/DTD/svg11.dtd">
<svg version="1.1" id="Layer_1" xmlns="http://www.w3.org/2000/svg" xmlns:xlink="http://www.w3.org/1999/xlink" x="0px" y="0px"
	 viewBox="0 0 595 456.3" enable-background="new 0 0 595 456.3" xml:space="preserve">
<rect x="343.4" y="186.1" fill="#2ECC71" width="37" height="132.3"/>
<line fill="none" stroke="#2ECC71" stroke-width="4" stroke-miterlimit="10" x1="361.9" y1="326.7" x2="361.9" y2="142.3"/>
<rect x="403.4" y="120.9" fill="#2ECC71" width="37" height="67.5"/>
<line fill="none" stroke="#2ECC71" stroke-width="4" stroke-miterlimit="10" x1="421.9" y1="210.4" x2="421.9" y2="98.4"/>
<rect x="463.4" y="120.9" opacity="0.2" fill="#E74C3C" width="37" height="133"/>
<line opacity="0.2" fill="none" stroke="#E74C3C" stroke-width="4" stroke-miterlimit="10" x1="481.9" y1="120.9" x2="481.9" y2="98.4"/>
<rect x="523.4" y="15.9" opacity="0.2" fill="#2ECC71" width="37" height="238"/>
<line opacity="0.2" fill="none" stroke="#2ECC71" stroke-width="4" stroke-miterlimit="10" x1="541.9" y1="262.7" x2="541.9" y2="253.9"/>
<line opacity="0.2" fill="none" stroke="#2ECC71" stroke-width="4" stroke-miterlimit="10" x1="541.9" y1="15.9" x2="541.9" y2="7"/>
<rect x="283.4" y="274.3" fill="#E74C3C" width="37" height="43.7"/>
<line fill="none" stroke="#E74C3C" stroke-width="4" stroke-miterlimit="10" x1="301.9" y1="430.4" x2="301.9" y2="252.1"/>
<rect x="223.4" y="274.3" fill="#2ECC71" width="37" height="117"/>
<line fill="none" stroke="#2ECC71" stroke-width="4" stroke-miterlimit="10" x1="241.9" y1="451.3" x2="241.9" y2="142.3"/>
<circle fill="#FFFFFF" stroke="#3498DB" stroke-width="4" stroke-miterlimit="10" cx="362.6" cy="274.3" r="14.4"/>
<g>
	<line fill="#FFFFFF" x1="348.2" y1="274.3" x2="4.9" y2="274.3"/>
	<g>
		<line fill="none" stroke="#3498DB" stroke-width="4" stroke-miterlimit="10" x1="348.2" y1="274.3" x2="340.7" y2="274.3"/>
		
			<line fill="none" stroke="#3498DB" stroke-width="4" stroke-miterlimit="10" stroke-dasharray="15.6336,15.6336" x1="325" y1="274.3" x2="20.2" y2="274.3"/>
		<line fill="none" stroke="#3498DB" stroke-width="4" stroke-miterlimit="10" x1="12.4" y1="274.3" x2="4.9" y2="274.3"/>
	</g>
</g>
<line fill="#FFFFFF" stroke="#3498DB" stroke-width="4" stroke-miterlimit="10" x1="377" y1="274.3" x2="591.4" y2="274.3"/>
<rect x="4.9" y="258.6" fill="#FFFFFF" stroke="#3498DB" stroke-width="2" stroke-miterlimit="10" width="159.8" height="31.4"/>
<text transform="matrix(1 0 0 1 130.1679 280.7085)" fill="#2ECC71" font-family="Poppins, sans-serif" font-size="16" font-weight="700">45</text>
<text transform="matrix(1 0 0 1 13.7692 280.488)" fill="#3498DB" font-family="Poppins, sans-serif" font-size="16" font-weight="700">BUY TRADE</text>
<text transform="matrix(1 0 0 1 286.9153 225.7769)" fill="#3498DB" font-family="Poppins, sans-serif" font-size="42">H</text>
<line fill="#FFFFFF" stroke="#3498DB" stroke-width="2" stroke-miterlimit="10" x1="117" y1="258.6" x2="117" y2="290"/>
<path fill="#3498DB" d="M301.9,110.2c14.8,0,26.8-12,26.8-26.8s-12-26.8-26.8-26.8s-26.8,12-26.8,26.8S287.1,110.2,301.9,110.2z
	 M278.5,83.4c0-12.8,10.4-23.3,23.3-23.3c12.8,0,23.3,10.4,23.3,23.3c0,12.8-10.4,23.3-23.3,23.3C289.1,106.7,278.5,96.3,278.5,83.4
	z M288.5,82L301,69.6c0.5-0.5,1.3-0.5,1.8,0L315.2,82c0.5,0.5,0.5,1.3,0,1.8l-0.7,0.7c-0.5,0.5-1.4,0.5-1.8,0l-8.9-9.2v20.6
	c0,0.7-0.6,1.3-1.3,1.3h-1.1c-0.7,0-1.3-0.6-1.3-1.3V75.3l-8.9,9.2c-0.5,0.5-1.3,0.5-1.8,0l-0.7-0.7C288,83.3,288,82.5,288.5,82z"/>
<path fill="#9B59B6" d="M479.8,294.9l-4.6,9.4l-10.4,1.5c-1.9,0.3-2.6,2.6-1.3,3.9l7.5,7.3l-1.8,10.3c-0.3,1.9,1.6,3.3,3.3,2.4
	l9.3-4.9l9.3,4.9c1.6,0.9,3.6-0.5,3.3-2.4l-1.8-10.3l7.5-7.3c1.3-1.3,0.6-3.6-1.3-3.9l-10.4-1.5l-4.6-9.4
	C483.1,293.3,480.7,293.3,479.8,294.9L479.8,294.9z"/>
</svg>
