<?xml version="1.0" encoding="utf-8"?>
<!-- Generator: Adobe Illustrator 18.0.0, SVG Export Plug-In . SVG Version: 6.00 Build 0)  -->
<!DOCTYPE svg PUBLIC "-//W3C//DTD SVG 1.1//EN" "http://www.w3.org/Graphics/SVG/1.1/DTD/svg11.dtd">
<svg version="1.1" id="Layer_1" xmlns="http://www.w3.org/2000/svg" xmlns:xlink="http://www.w3.org/1999/xlink" x="0px" y="0px"
	 viewBox="0 0 355.6 150" enable-background="new 0 0 355.6 150" xml:space="preserve">
<g>
	<path fill="#FFA801" d="M132.7,70.7c-3.6,4.3-4.8,5.3-9.1,7c-6.9-12.5-19.3-13.9-19.3-13.9s8.5-8.1-19.8-27.8c-7.1-5-7.6-11-7.6-11
		L54.5,79.3l10.9,22.1l-26.1,3.8c0,0-7.5-14.7-9.8-23.3S75.9,7.3,75.9,7.3s44,53.3,56.8,52.3V70.7z"/>
	<path fill="#FFA801" d="M283.1,4.9c0,0,45.8,64.4,43.5,73s-8.1,28.3-8.1,28.3l-15.2-2.6c0,0-0.7-15.9-6-22.8l7.3-4.7l-22.4-54.5
		c0,0-0.4,6.2-7.6,11c-27.5,18.1-25.7,25.9-25.7,25.9s-7.2,0.4-14.2,6.8c-6.4,0.2-10.6,0-19.4-11.5C215.4,53.9,244.6,46.5,283.1,4.9
		z"/>
	<g>
		<path fill="#FFA801" d="M70.1,137.1c-5.8-7.7-5.4-19.4-0.2-26.3c4.3-5.7,10.5-11.5,23.4-12.7c5.3-0.5,9.3,0,15,1.4
			c0,0,0.2-6-0.4-10.3C106.5,81,99.1,78.8,94.5,79c-4.4,0.2-11.4,3.9-13,11.9l-14.4,0c3.3-13.8,12.5-20.9,19.4-22.7
			c14-3.5,24.5,2,29.3,6.9c3.5,3.5,6.4,12.9,6.4,27l0.4,14.7c1.1,8.5,0.9,20.5,6,23c-0.3,2.5-2.9,4.2-3.9,4.8
			c-1.6,0.8-5.1,1-7.1,0.4c-1.6-0.5-2.8-2.2-3.5-3.1c-1.1-1.7-1.8-3.3-2.3-4.3c-1.5,2.5-8.2,7.8-20.2,7.8
			C77.8,145.4,73.3,141.4,70.1,137.1z M107.2,110.7c-2.7-1.5-9.7-2.4-15.2-1.1c-13.9,3.3-14.1,18.2-7.5,22.6
			c2.4,1.6,7.7,1.7,10.7,1.4c12.1-1.2,12.2-10,12-17.1L107.2,110.7z"/>
		<path fill="#FFA801" d="M137.5,59.6c0,0,9.2-2,15.2-8.8l-0.2,73.6c0,8,2.4,12.8,7.2,14.3c-2.3,4.5-6.4,6.7-12,6.7
			c-6.9,0-10.3-4.8-10.3-14.3L137.5,59.6z"/>
		<path fill="#FFA801" d="M167.8,137.2l8.9-11c4.9,4.5,10.4,6.8,16.5,6.8c4.1,0,7.4-0.6,10-1.8c2.6-1.2,3.9-2.9,3.9-5
			c0-3.6-2.9-5.4-8.7-5.4c-1.6,0-3.9,0.2-7,0.6c-3.1,0.4-5.5,0.6-7,0.6c-9.7,0-14.5-3.5-14.5-10.4c0-2,0.8-3.9,2.4-5.9
			c1.6-1.9,3.5-3.3,5.6-4.2c-6.9-4.5-10.3-10.8-10.3-19c0-6.5,2.4-11.8,7.1-16s10.6-6.3,17.5-6.3c5.4,0,9.9,1,13.6,3l5.7-6.8
			c4.7,7.5,9.6,9.7,9.6,9.7l-6.8,4.5c2.3,3.5,3.5,7.7,3.5,12.5c0,6.9-2.1,12.4-6.3,16.5c-4.2,4.1-9.5,6.2-15.9,6.2
			c-1,0-2.4-0.1-4.1-0.3l-2.3-0.3c-0.3,0-1.3,0.4-3,1.2c-1.7,0.8-2.6,1.6-2.6,2.5c0,1.5,1.3,2.3,3.9,2.3c1.2,0,3.1-0.3,5.9-0.8
			c2.7-0.6,5.1-0.8,7-0.8c13.7,0,20.6,5.5,20.6,16.5c0,6.1-2.7,10.9-8.2,14.3c-5.5,3.5-12.1,5.2-19.8,5.2
			C183.6,145.4,175.3,142.7,167.8,137.2z M181.9,82.6c0,3.6,1,6.4,3,8.6c2,2.2,4.6,3.2,8,3.2c3.3,0,5.9-1.1,7.7-3.2
			c1.8-2.1,2.7-5,2.7-8.7c0-3-1-5.6-2.9-7.7c-1.9-2.1-4.4-3.2-7.5-3.2c-3.2,0-5.9,1-7.9,3C182.9,76.8,181.9,79.4,181.9,82.6z"/>
		<path fill="#FFA801" d="M225.6,106c0-11.5,3.3-20.9,10-28.2C242.2,70.6,251,67,261.9,67c11.5,0,20.4,3.5,26.8,10.4
			c6.4,7,9.5,16.5,9.5,28.6c0,12-3.2,21.6-9.7,28.7c-6.5,7.1-15.3,10.7-26.6,10.7c-11.5,0-20.4-3.6-26.8-10.8
			C228.8,127.5,225.6,117.9,225.6,106z M243.9,106c0,16.7,6,25,18,25c5.5,0,9.9-2.2,13.1-6.5c3.2-4.3,4.8-10.5,4.8-18.5
			c0-16.4-6-24.6-17.9-24.6c-5.5,0-9.9,2.2-13.1,6.5C245.6,92.2,243.9,98.3,243.9,106z"/>
	</g>
</g>
</svg>
