<?xml version="1.0" encoding="utf-8"?>
<!-- Generator: Adobe Illustrator 18.0.0, SVG Export Plug-In . SVG Version: 6.00 Build 0)  -->
<!DOCTYPE svg PUBLIC "-//W3C//DTD SVG 1.1//EN" "http://www.w3.org/Graphics/SVG/1.1/DTD/svg11.dtd">
<svg version="1.1" id="Layer_1" xmlns="http://www.w3.org/2000/svg" xmlns:xlink="http://www.w3.org/1999/xlink" x="0px" y="0px"
	 viewBox="0 0 170.7 72" enable-background="new 0 0 170.7 72" xml:space="preserve">
<g>
	<path fill="#FFFFFF" d="M63.9,34c-1.7,2.1-2.3,2.6-4.3,3.3c-3.3-6-9.2-6.7-9.2-6.7s4-3.9-9.5-13.3c-3.4-2.4-3.7-5.3-3.7-5.3
		l-10.7,26l5.2,10.6l-12.5,1.8c0,0-3.6-7-4.7-11.1S36.7,3.7,36.7,3.7s21,25.5,27.2,25V34z"/>
	<path fill="#FFFFFF" d="M135.9,2.5c0,0,21.9,30.8,20.8,34.9S152.8,51,152.8,51l-7.3-1.2c0,0-0.3-7.6-2.9-10.9l3.5-2.2l-10.7-26
		c0,0-0.2,3-3.7,5.3c-13.2,8.7-12.3,12.4-12.3,12.4s-3.5,0.2-6.8,3.3c-3.1,0.1-5.1,0-9.3-5.5C103.5,26,117.4,22.4,135.9,2.5z"/>
	<g>
		<path fill="#FFFFFF" d="M34,65.8c-2.8-3.7-2.6-9.3-0.1-12.6c2.1-2.7,5-5.5,11.2-6.1c2.5-0.2,4.4,0,7.2,0.7c0,0,0.1-2.9-0.2-4.9
			c-0.6-3.9-4.1-5-6.3-4.9c-2.1,0.1-5.5,1.9-6.2,5.7l-6.9,0c1.6-6.6,6-10,9.3-10.8c6.7-1.7,11.7,1,14,3.3C57.5,37.8,59,42.3,59,49
			l0.2,7c0.5,4.1,0.4,9.8,2.9,11c-0.1,1.2-1.4,2-1.9,2.3c-0.7,0.4-2.4,0.5-3.4,0.2c-0.8-0.2-1.4-1-1.7-1.5c-0.5-0.8-0.8-1.6-1.1-2
			c-0.7,1.2-3.9,3.7-9.7,3.7C37.7,69.8,35.5,67.8,34,65.8z M51.7,53.2c-1.3-0.7-4.6-1.2-7.3-0.5c-6.7,1.6-6.7,8.7-3.6,10.8
			c1.2,0.8,3.7,0.8,5.1,0.7c5.8-0.6,5.8-4.8,5.7-8.2L51.7,53.2z"/>
		<path fill="#FFFFFF" d="M66.2,28.7c0,0,4.4-1,7.3-4.2l-0.1,35.2c0,3.8,1.1,6.1,3.4,6.9c-1.1,2.1-3,3.2-5.8,3.2
			c-3.3,0-4.9-2.3-4.9-6.9L66.2,28.7z"/>
		<path fill="#FFFFFF" d="M80.7,65.8l4.3-5.3c2.4,2.2,5,3.2,7.9,3.2c1.9,0,3.5-0.3,4.8-0.9c1.3-0.6,1.9-1.4,1.9-2.4
			c0-1.7-1.4-2.6-4.2-2.6c-0.8,0-1.9,0.1-3.4,0.3c-1.5,0.2-2.6,0.3-3.4,0.3c-4.6,0-7-1.7-7-5c0-1,0.4-1.9,1.2-2.8
			c0.8-0.9,1.7-1.6,2.7-2c-3.3-2.1-4.9-5.2-4.9-9.1c0-3.1,1.1-5.6,3.4-7.7s5-3,8.4-3c2.6,0,4.8,0.5,6.5,1.5l2.7-3.3
			c2.3,3.6,4.6,4.6,4.6,4.6l-3.2,2.1c1.1,1.7,1.7,3.7,1.7,6c0,3.3-1,5.9-3,7.9c-2,2-4.5,3-7.6,3c-0.5,0-1.1,0-1.9-0.1l-1.1-0.2
			c-0.1,0-0.6,0.2-1.4,0.6c-0.8,0.4-1.3,0.8-1.3,1.2c0,0.7,0.6,1.1,1.9,1.1c0.6,0,1.5-0.1,2.8-0.4c1.3-0.3,2.4-0.4,3.4-0.4
			c6.6,0,9.8,2.6,9.8,7.9c0,2.9-1.3,5.2-3.9,6.9c-2.6,1.7-5.8,2.5-9.5,2.5C88.3,69.8,84.3,68.4,80.7,65.8z M87.4,39.7
			c0,1.7,0.5,3.1,1.4,4.1c0.9,1,2.2,1.5,3.8,1.5c1.6,0,2.8-0.5,3.7-1.5c0.9-1,1.3-2.4,1.3-4.2c0-1.5-0.5-2.7-1.4-3.7
			c-0.9-1-2.1-1.5-3.6-1.5c-1.5,0-2.8,0.5-3.8,1.5S87.4,38.2,87.4,39.7z"/>
		<path fill="#FFFFFF" d="M108.3,50.9c0-5.5,1.6-10,4.8-13.5c3.2-3.5,7.4-5.2,12.6-5.2c5.5,0,9.8,1.7,12.8,5c3,3.3,4.6,7.9,4.6,13.7
			c0,5.8-1.5,10.3-4.6,13.7c-3.1,3.4-7.3,5.1-12.7,5.1c-5.5,0-9.8-1.7-12.8-5.1C109.9,61.2,108.3,56.6,108.3,50.9z M117.1,50.9
			c0,8,2.9,11.9,8.6,11.9c2.6,0,4.7-1,6.3-3.1c1.5-2.1,2.3-5,2.3-8.8c0-7.9-2.9-11.8-8.6-11.8c-2.6,0-4.7,1-6.3,3.1
			C117.9,44.3,117.1,47.2,117.1,50.9z"/>
	</g>
</g>
</svg>
