<?xml version="1.0" encoding="utf-8"?>
<!-- Generator: Adobe Illustrator 18.0.0, SVG Export Plug-In . SVG Version: 6.00 Build 0)  -->
<!DOCTYPE svg PUBLIC "-//W3C//DTD SVG 1.1//EN" "http://www.w3.org/Graphics/SVG/1.1/DTD/svg11.dtd">
<svg version="1.1" id="Layer_1" xmlns="http://www.w3.org/2000/svg" xmlns:xlink="http://www.w3.org/1999/xlink" x="0px" y="0px"
	 viewBox="0 0 605.7 479" enable-background="new 0 0 605.7 479" xml:space="preserve">
<g>
	<path fill="#0A0633" d="M244.6,392.8c-37.9,0-72-8.1-102.2-24.3c-54.9-29.4-85.8-80.5-102.2-118.2c-14.2-32.8-20-60.9-21.8-71.2
		c-0.4-2.3,1.2-4.5,3.5-4.8l0,0c2.2-0.3,4.2,1.2,4.6,3.4c4,22.4,28.5,134.8,119.8,183.6c71,38,164.9,29.4,279.3-25.4
		c2-1,4.5-0.1,5.5,1.9l0,0c1,2.1,0.1,4.5-1.9,5.5C360.4,376.3,298.7,392.8,244.6,392.8z"/>
</g>
<g>
	<path fill="#0A0633" d="M20.1,166.3L20.1,166.3c2.2-0.4,3.5-2.5,3.1-4.6c-0.9-4-3-10.3-6.9-15.7c-1.4-1.9-4.1-2.3-6-0.8h0
		c-1.7,1.4-1.9,3.8-0.7,5.6c1.9,2.6,4.4,6.8,5.9,12.6C16.1,165.4,18.1,166.7,20.1,166.3z"/>
</g>
<path fill="none" stroke="#0A0633" stroke-width="3" stroke-miterlimit="10" d="M313.9,380.5l39.6,82.5c1.2,2.9-0.9,6.1-4,6.1H125.7
	c-2.4,0-3.9-2.7-2.6-4.7l62.9-82.9"/>
<g>
	<path fill="#BC9D84" d="M520.7,468.6h-73.9l0.1-0.4l7.8-28.1l-2.5-19.1h28.5l-0.3,1.6l-0.2,1l-2.8,16.1l0,0
		C477.8,440,492.7,448.6,520.7,468.6z"/>
	<polygon fill="#A58671" points="455.9,440.2 449.7,468.6 446.8,468.6 454.7,440.1 452.2,421 454.4,421 	"/>
	<path fill="#A58671" d="M480.7,421l-0.5,1.8h-25.7c0,0-0.6-0.5-1.1-1.8H480.7z"/>
	<path fill="#A58671" d="M520.7,468.6h-2.2L476.2,440l3-19h1.5l-0.3,1.6l-0.2,1l-2.8,16.1l0,0C477.8,440,492.7,448.6,520.7,468.6z"
		/>
	<polygon fill="#A58671" points="520.7,468.6 446.8,468.6 446.9,468.2 520.1,468.2 	"/>
</g>
<g>
	<path fill="#F4D9BD" d="M531.4,469h-73.9l0.1-0.4l7.8-28.1l-2.5-19.1h28.5l-0.3,1.6l-0.2,1l-2.8,16.1l0,0
		C488.6,440.4,503.4,449,531.4,469z"/>
	<polygon fill="#E5C7AC" points="466.7,440.6 460.6,468.6 460.5,469 457.5,469 457.6,468.6 465.4,440.5 462.9,421.4 465.1,421.4 
		465.1,422.1 465.2,423.1 	"/>
	<path fill="#E5C7AC" d="M491.4,421.4l-0.5,1.8h-25.7c0,0-0.6-0.5-1.1-1.8H491.4z"/>
	<path fill="#E5C7AC" d="M531.4,469h-2.2l-42.3-28.6l3-19h1.5l-0.3,1.6l-0.2,1l-2.8,16.1l0,0C488.6,440.4,503.4,449,531.4,469z"/>
	<polygon fill="#E5C7AC" points="531.4,469 457.5,469 457.6,468.6 530.8,468.6 	"/>
</g>
<path fill="#F4D9BD" d="M94.1,178.4c-2.1,0.6-4.5,0.8-7,1.2c-21.5,3.7-55.1-9.8-55.1-9.8c1.1-8.8,5.3-39.5,0-55.3
	C21.1,81.7,12,66.1,21.8,49c6.8-11.7,19-14.2,28.9-13.6c4.5,0.3,8.5,1.1,11.3,2c13.7,4.3,22.2,9.1,27,14.4c0,0,0,0,0,0
	c0.7,0.7,1.3,1.5,1.8,2.2c7.9,11.3,0.3,24.5-8.6,39.6c0,0,0,0.1-0.1,0.1c-1.5,2.5-3,5.1-4.5,7.8c0,0,0,0,0,0c-3.4,6-6.7,12.2-9,18.7
	c-1.1,3-1.9,6-2.5,9.1C58.4,169.4,94.1,178.4,94.1,178.4z"/>
<polygon fill="#E5C7AC" points="469.1,441.5 467.3,468.6 466.4,469 457.5,469 457.6,468.6 465.4,440.5 462.9,421.4 463.9,421.4 
	464.3,421.6 465.1,422.1 467.3,423.2 "/>
<path fill="#E5C7AC" d="M50.7,35.4c-9.9-0.6-22.1,1.9-28.9,13.6C12,66.1,21.1,81.7,32,114.6c5.3,15.8,1.1,46.5,0,55.3h1.7
	c0,0,6.2-49,5.7-56.4c-0.6-7.4-5.5-9.6,0.6-23.1c6.2-13.9,7-14.8,8.2-29.7"/>
<path fill="#130F40" d="M481.1,404.9c0,0,9.1,7.7,0,16.5h-32.7c0,0-4.6-10,1.8-16.5L481.1,404.9z"/>
<path fill="#130F40" stroke="#130F40" stroke-miterlimit="10" d="M450.6,404.9c-5.9-70.4-22.9-78.1-22.9-78.1l17-7.2l25.5,85.3
	H450.6z"/>
<path fill="#414782" d="M493.9,404.9c0,0,5.3,5.6,0,16.5h-32.7c0,0-5.9-11.5,1.4-16.5H493.9z"/>
<path fill="#FFFFFF" stroke="#DFDFEF" stroke-miterlimit="10" d="M310.7,371.1c-125.6,24.5-195.4-27.4-233.8-84.6l0,0
	C39.5,230.7,32,169.8,32,169.8s5.4,2.1,13.3,4.5c14.6,4.3,37.6,9.4,51.1,3.1l77,67.1c4,1.1,8.3,1.2,12.2,0.7
	c71-8.9,119.4,20,119.4,20C330.9,294.3,310.7,371.1,310.7,371.1z"/>
<path fill="#DFDFEF" d="M137.2,317.1c0,0-10.2-31.7-27.7-47.4c-12.7-11.4-17.3-18-17.3-18s-0.1-4.5,5.9-16.5l34.5,50.8L137.2,317.1z
	"/>
<path fill="#DFDFEF" d="M260.5,318.8c11.7-1.2,26.2-11.3,33.3-28.5c7.1-17.2,12.6-2.3,13.6,12.8c0.4,6.3,2.7,47.7-13,57.2
	c-18,10.8-80.4,10.8-117.9-6.5c0,0-11.4-34.2-10.2-36.7c1.2-2.5,18-14.1,39.1-15.9C223.4,299.8,233.4,321.6,260.5,318.8z"/>
<path fill="#F4D9BD" d="M193.3,423.1c-0.3,0.6-0.8,1.2-1.4,1.8c-0.1,0.1-0.3,0.2-0.4,0.4c-0.2,0.1-0.3,0.3-0.5,0.4
	c-0.5,0.4-1,0.8-1.6,1.2c-0.2,0.1-0.4,0.2-0.6,0.4c-0.3,0.2-0.7,0.4-1,0.6c-0.2,0.1-0.4,0.2-0.6,0.3c-1.1,0.6-2.2,1.1-3.3,1.5
	c-0.2,0.1-0.5,0.2-0.7,0.3c-0.4,0.1-0.8,0.3-1.1,0.4c-0.2,0.1-0.3,0.1-0.5,0.2c-0.1,0-0.2,0.1-0.3,0.1c-0.5,0.1-0.9,0.3-1.4,0.4
	c-0.2,0.1-0.4,0.1-0.6,0.2c-0.5,0.1-0.9,0.2-1.4,0.3c-0.2,0-0.4,0.1-0.7,0.1c-1.1,0.2-2.1,0.3-3,0.3c-0.3,0-0.6-0.1-0.8-0.2
	c-0.2-0.1-0.5-0.2-0.7-0.4v0c-0.2-0.1-0.3-0.2-0.5-0.4c-0.3-0.3-0.5-0.6-0.8-0.9c-2.4-3.4-4.2-11.2-5.2-21.3c0-0.4-0.1-0.7-0.1-1.1
	c-0.1-1.1-0.2-2.3-0.3-3.5c0-0.2,0-0.4-0.1-0.6c-0.2-2-0.4-4.1-0.7-6.2c-5.3-35.7-31.1-77.2-44.1-128.1c0,0,3-1.8,7.7-4.4
	c1.9-1,4.1-2.2,6.4-3.4c11.4-5.8,27.3-12.9,38.4-13.6c0,0,5.7,41.8,5.8,74.4c0.1,26.7-0.5,38.5,1.8,47.6c2.8,11.2,2.8,13.4,5,32.1
	c0.1,0.9,0.9,2.6,1.8,3c0.2,0.1,0.5,0.3,0.9,0.6C190.7,407,194.5,412.1,193.3,423.1z"/>
<path fill="#E5C7AC" d="M174.9,431.6c-0.2,0-0.4,0-0.5,0c-0.3,0-0.6-0.1-0.8-0.2c-0.2-0.1-0.5-0.2-0.7-0.4c0,0,0,0,0,0
	c-0.2-0.1-0.3-0.2-0.5-0.4c-2.8-2.7-4.8-11.1-5.9-22.2c0-0.4-0.1-0.7-0.1-1.1c-0.1-1.4-0.2-2.8-0.3-4.2c-0.2-2-0.4-4-0.8-6.1
	c-5.3-35.7-31.1-77.2-44.1-128.1c0,0,3-1.8,7.7-4.4c3.4,5.6,8.2,9.9,10.4,11.4c7.2,4.9,11.9,8.6,11.7,31c-0.3,30.6,6.1,30.6,9,44.1
	c2.9,13.4,9.2,53.1,9.2,62.9C169.2,420.1,171.7,427.8,174.9,431.6z"/>
<path fill="#E5C7AC" d="M193.3,423.1c-0.3,0.6-0.8,1.2-1.4,1.8c-0.1,0.1-0.3,0.2-0.4,0.4c-0.2,0.1-0.3,0.3-0.5,0.4
	c-0.5,0.4-1,0.8-1.6,1.2c-0.2,0.1-0.4,0.2-0.6,0.4c-0.3,0.2-0.7,0.4-1,0.6c-0.2,0.1-0.4,0.2-0.6,0.3c-1.1,0.6-2.2,1.1-3.3,1.5
	c-0.2,0.1-0.5,0.2-0.7,0.3c-0.4,0.1-0.8,0.3-1.1,0.4c-0.2,0.1-0.5,0.2-0.7,0.2c-0.5,0.1-0.9,0.3-1.4,0.4c-0.2,0.1-0.4,0.1-0.6,0.2
	c-0.5,0.1-0.9,0.2-1.4,0.3c-0.2,0-0.4,0.1-0.7,0.1c-1.1,0.2-2.1,0.3-3,0.3c-0.3,0-0.6-0.1-0.8-0.2c-0.2-0.1-0.5-0.2-0.7-0.4v0
	c-0.2-0.1-0.3-0.2-0.5-0.4c-0.3-0.3,0.3,0.4,0,0c6.4-1,15.5-1.1,18.8-7.2c3.3-6.1-1.1-15.4-2.2-18.2
	C190.7,407,194.5,412.1,193.3,423.1z"/>
<path fill="#E5C7AC" d="M94.1,178.4c-2.1,0.6-4.5,1-7,1.2c-38.2-20.5-18.5-59.5-18.5-59.5c-1.1,3-1.9,6-2.5,9.1
	C58.4,169.4,94.1,178.4,94.1,178.4z"/>
<path fill="#414782" d="M493.9,405h-31.3c0,0,0-0.1-0.1-0.2c-1-10-2.5-19.4-4.2-28.1c0,0,0,0,0,0c-3.4-16.9-7.7-31.1-11.8-40.6
	c-4-9.3-7.7-14.3-9.8-13.2c-5.5,2.7-9,3.9-9,3.9c-3.5,1.8-7,3.6-10.4,5.3c0,0,0,0-0.1,0c-0.3,0.2-0.6,0.3-0.9,0.5
	c-5.6,2.7-11,5.3-16.5,7.8c-0.1,0-0.2,0.1-0.2,0.1c-28.4,12.9-55.1,22.2-79.2,28.3c-0.3,0.1-0.6,0.2-0.9,0.2
	c-2.9,0.7-5.8,1.4-8.6,2.1c0,0,0.1-0.4,0.3-1c2.2-9,17.5-74.5-4.6-103.3c0,0,0.5-0.2,1.4-0.6c14-6.3,133.5-57.8,194.4-2.7
	C521.4,280.9,493.9,405,493.9,405z"/>
<path fill="#FFFFFF" stroke="#DFDFEF" stroke-miterlimit="10" d="M98,235.2c5.2,19,16.8,36.8,23.5,33.1c40.1-22,52.1-20.6,52.1-20.6
	c-2-27.7-13.9-44.8-15.8-47c-27.4-32.7-61.5-23.2-61.5-23.2"/>
<path fill="#2A3168" d="M458.3,376.7c-6.7-33.5-17.3-56-21.6-53.8c-5.5,2.7-9,3.9-9,3.9c-3.5,1.8-7,3.6-10.4,5.3c0,0,0,0-0.1,0
	c-5.9,2.9-11.7,5.7-17.4,8.3c-0.1,0-0.2,0.1-0.2,0.1c43.7-25.9,49.4-34.4,49.4-34.4C448.3,317.8,454.6,350.7,458.3,376.7z"/>
<path fill="#2A3168" d="M416.2,332.6c-5.6,2.7-11,5.3-16.5,7.8c-0.1,0-0.2,0.1-0.2,0.1c-32.2,14.6-62.2,24.6-88.8,30.6
	c0,0,0.1-0.4,0.3-1c0,0,51.5-11.6,95.8-33.9C410.5,334.3,413.6,333.2,416.2,332.6z"/>
<path fill="#2A3168" d="M320.4,367.7c0,0.4-0.1,0.7-0.2,1.1c-3.2,0.8-6.4,1.6-9.6,2.3c0,0,0.1-0.4,0.3-1c2.2-9,17.5-74.5-4.6-103.3
	c0,0-0.2,0.1,0.7-0.3C307.1,266.5,327.1,283.6,320.4,367.7z"/>
<path fill="#DFDFEF" d="M76.9,286.5C39.5,230.7,32,169.8,32,169.8s5.4,2.1,13.3,4.5C45.3,174.3,36.4,199.6,76.9,286.5z"/>
<path fill="#DFDFEF" d="M145.5,198c-1.1-2.1,15.1,1.6,20.8,40.3c0,0-6.2,0.5-13.2,3.2C153.1,241.5,155.3,215.6,145.5,198z"/>
<path fill="#2A3168" d="M448.9,306.1l-2.5,30c-4-9.3-7.7-14.3-9.8-13.2c-5.5,2.7-9,3.9-9,3.9c-3.5,1.8-7,3.6-10.4,5.3c0,0,0,0-0.1,0
	c-0.3,0.2-0.6,0.3-0.9,0.5c-5.6,2.7-11,5.3-16.5,7.8c-0.1,0-0.2,0.1-0.2,0.1c-28.4,12.9-55.1,22.2-79.2,28.3
	c-0.3,0.1-0.6,0.2-0.9,0.2v-21.6C353.9,355.9,448.9,306.1,448.9,306.1z"/>
<path fill="#2A3168" d="M44.9,66.1c0,0,2,14.5-7.5,23.7c-2.1,2,0.7,9.3-4.2,10.5c-4,0.9-6,15.4-9.2-2c-1.9-10-4.7-10-6.3-15.2
	s26-23,26-23L44.9,66.1z"/>
<path fill="#2A3168" d="M57.8,29.1c0,0,54.7-55.8,1.1,18.1L57.8,29.1z"/>
<path fill="#C0392B" d="M58.9,47.2c-0.2,0.4-0.4,0.8-0.6,1.3c-6.2,13.1-21.1,27.1-29.4,36.1c-3.8,4.2-5.7,5.8-8.2,5.8
	c-7.1,0-24.6-21.1-5.7-49.5c1-1.5,2.1-2.9,3.3-4.2v0c0,0,0,0,0,0C33.5,19.6,58.7,23,61,34.3C61.8,38.1,60.9,42.6,58.9,47.2z"/>
<path fill="#A82822" d="M58.9,47.2c-0.2,0.4-0.4,0.8-0.6,1.3c-6.2,13.1-21.1,27.1-29.4,36.1c-4-9.1-10.1-26.5-10.6-47.9v0
	c0,0,0,0,0,0C18.8,36.7,39.3,37.7,58.9,47.2z"/>
<path fill="#E5C7AC" d="M91.5,69.2c1.4-8.5,0.4-13-0.7-15.2c7.9,11.3,0.3,24.5-8.6,39.6C85.7,87.1,90.1,77.7,91.5,69.2z"/>
<line fill="none" stroke="#0A0633" stroke-width="3" stroke-miterlimit="10" x1="593.1" y1="469" x2="6.5" y2="469"/>
</svg>
